HIERARCHY
ROOT Reference
{
  OFFSET 0 0 0
  CHANNELS 6 Xposition Yposition Zposition Zrotation Xrotation Yrotation
  JOINT Hips
  {
    OFFSET 251.394 724.17 483.536
    CHANNELS 3 Zrotation Xrotation Yrotation
    JOINT RightUpLeg
    {
      OFFSET -0.450515 -23.4426 -1.37224
      CHANNELS 3 Zrotation Xrotation Yrotation
      JOINT RightLeg
      {
        OFFSET 112.821 0.0872427 -0.321027
        CHANNELS 3 Zrotation Xrotation Yrotation
        JOINT RightFoot
        {
          OFFSET 105.718 0.000193788 0.0213165
          CHANNELS 3 Zrotation Xrotation Yrotation
          JOINT RightToeBase
          {
            OFFSET 37.638 -0.000116272 0.00224792
            CHANNELS 3 Zrotation Xrotation Yrotation
            JOINT RightToeEnd
            {
              OFFSET 21.2112 0.114605 -0.000138184
              CHANNELS 3 Zrotation Xrotation Yrotation
              End Site
              {
                OFFSET 0 0 0
              }
            }
          }
        }
      }
    }
    JOINT LeftUpLeg
    {
      OFFSET -0.449508 23.4315 -1.37054
      CHANNELS 3 Zrotation Xrotation Yrotation
      JOINT LeftLeg
      {
        OFFSET 112.821 -0.0485242 -0.372458
        CHANNELS 3 Zrotation Xrotation Yrotation
        JOINT LeftFoot
        {
          OFFSET 105.716 0.00496094 -0.0229443
          CHANNELS 3 Zrotation Xrotation Yrotation
          JOINT LeftToeBase
          {
            OFFSET 37.639 0 0.00158905
            CHANNELS 3 Zrotation Xrotation Yrotation
            JOINT LeftToeEnd
            {
              OFFSET 21.2113 -0.125031 -0.00017438
              CHANNELS 3 Zrotation Xrotation Yrotation
              End Site
              {
                OFFSET 0 0 0
              }
            }
          }
        }
      }
    }
    JOINT Spine
    {
      OFFSET -5.01225 0.000463591 -9.60395
      CHANNELS 3 Zrotation Xrotation Yrotation
      JOINT Spine1
      {
        OFFSET 26.0222 -0.000271301 -0.000155029
        CHANNELS 3 Zrotation Xrotation Yrotation
        JOINT Spine2
        {
          OFFSET 27.173 -0.000155029 -0.000310058
          CHANNELS 3 Zrotation Xrotation Yrotation
          JOINT Spine3
          {
            OFFSET 36.3953 -0.000232544 7.75146e-005
            CHANNELS 3 Zrotation Xrotation Yrotation
            JOINT Neck
            {
              OFFSET 36.4331 0 -3.00261
              CHANNELS 3 Zrotation Xrotation Yrotation
              JOINT Head
              {
                OFFSET 23.0407 -0.000232544 -0.000310058
                CHANNELS 3 Zrotation Xrotation Yrotation
                End Site
                {
                  OFFSET 0 0 0
                }
              }
            }
            JOINT LeftShoulder
            {
              OFFSET 20.1317 6.74168 -12.6061
              CHANNELS 3 Zrotation Xrotation Yrotation
              JOINT LeftArm
              {
                OFFSET 34.2172 -5.81359e-005 7.75146e-005
                CHANNELS 3 Zrotation Xrotation Yrotation
                JOINT LeftForeArm
                {
                  OFFSET 65.4129 -0.0821605 0.0585235
                  CHANNELS 3 Zrotation Xrotation Yrotation
                  JOINT LeftHand
                  {
                    OFFSET 67.3883 0.0359667 0.0112396
                    CHANNELS 3 Zrotation Xrotation Yrotation
                    JOINT LeftHandThumb1
                    {
                      OFFSET 8.78386 2.85353 -6.05362
                      CHANNELS 3 Zrotation Xrotation Yrotation
                      JOINT LeftHandThumb2
                      {
                        OFFSET 8.25498 -0.000116272 -0.000174407
                        CHANNELS 3 Zrotation Xrotation Yrotation
                        JOINT LeftHandThumb3
                        {
                          OFFSET 7.24822 0.000310058 5.81358e-005
                          CHANNELS 3 Zrotation Xrotation Yrotation
                          JOINT LeftHandThumb4
                          {
                            OFFSET 7.0004 -3.87568e-005 -0.000310057
                            CHANNELS 3 Zrotation Xrotation Yrotation
                            End Site
                            {
                              OFFSET 0 0 0
                            }
                          }
                        }
                      }
                    }
                    JOINT LeftHandIndex1
                    {
                      OFFSET 24.0991 -1.01537 -5.40558
                      CHANNELS 3 Zrotation Xrotation Yrotation
                      JOINT LeftHandIndex2
                      {
                        OFFSET 7.26759 -0.000290679 -0.000465086
                        CHANNELS 3 Zrotation Xrotation Yrotation
                        JOINT LeftHandIndex3
                        {
                          OFFSET 7.13628 -1.93787e-005 0.000232543
                          CHANNELS 3 Zrotation Xrotation Yrotation
                          JOINT LeftHandIndex4
                          {
                            OFFSET 5.46699 9.68932e-005 -0.000387571
                            CHANNELS 3 Zrotation Xrotation Yrotation
                            End Site
                            {
                              OFFSET 0 0 0
                            }
                          }
                        }
                      }
                    }
                    JOINT LeftHandMiddle1
                    {
                      OFFSET 24.4604 -2.52837 0.918567
                      CHANNELS 3 Zrotation Xrotation Yrotation
                      JOINT LeftHandMiddle2
                      {
                        OFFSET 7.41627 -5.81359e-005 0.000116271
                        CHANNELS 3 Zrotation Xrotation Yrotation
                        JOINT LeftHandMiddle3
                        {
                          OFFSET 8.76829 3.87573e-005 -7.75142e-005
                          CHANNELS 3 Zrotation Xrotation Yrotation
                          JOINT LeftHandMiddle4
                          {
                            OFFSET 6.07588 -0.00013565 -5.81356e-005
                            CHANNELS 3 Zrotation Xrotation Yrotation
                            End Site
                            {
                              OFFSET 0 0 0
                            }
                          }
                        }
                      }
                    }
                    JOINT LeftHandRing1
                    {
                      OFFSET 22.465 -1.97467 6.3466
                      CHANNELS 3 Zrotation Xrotation Yrotation
                      JOINT LeftHandRing2
                      {
                        OFFSET 7.36666 -0.000232544 0.000387571
                        CHANNELS 3 Zrotation Xrotation Yrotation
                        JOINT LeftHandRing3
                        {
                          OFFSET 8.07624 -0.000465087 -0.000203475
                          CHANNELS 3 Zrotation Xrotation Yrotation
                          JOINT LeftHandRing4
                          {
                            OFFSET 6.04433 0.00013565 3.87571e-005
                            CHANNELS 3 Zrotation Xrotation Yrotation
                            End Site
                            {
                              OFFSET 0 0 0
                            }
                          }
                        }
                      }
                    }
                    JOINT LeftHandPinky1
                    {
                      OFFSET 19.5278 0.352933 10.4295
                      CHANNELS 3 Zrotation Xrotation Yrotation
                      JOINT LeftHandPinky2
                      {
                        OFFSET 6.16525 5.8136e-005 -0.000251921
                        CHANNELS 3 Zrotation Xrotation Yrotation
                        JOINT LeftHandPinky3
                        {
                          OFFSET 6.14448 -0.000329434 -0.00510625
                          CHANNELS 3 Zrotation Xrotation Yrotation
                          JOINT LeftHandPinky4
                          {
                            OFFSET 4.98555 0.000116272 0.000116271
                            CHANNELS 3 Zrotation Xrotation Yrotation
                            End Site
                            {
                              OFFSET 0 0 0
                            }
                          }
                        }
                      }
                    }
                  }
                }
              }
            }
            JOINT RightShoulder
            {
              OFFSET 20.1309 -6.74152 -12.6063
              CHANNELS 3 Zrotation Xrotation Yrotation
              JOINT RightArm
              {
                OFFSET 34.2171 7.75146e-005 7.75146e-005
                CHANNELS 3 Zrotation Xrotation Yrotation
                JOINT RightForeArm
                {
                  OFFSET 65.4492 0.242543 -0.176501
                  CHANNELS 3 Zrotation Xrotation Yrotation
                  JOINT RightHand
                  {
                    OFFSET 67.3888 -0.0867388 0.0597442
                    CHANNELS 3 Zrotation Xrotation Yrotation
                    JOINT RightHandThumb1
                    {
                      OFFSET 8.78307 -2.85357 -6.05302
                      CHANNELS 3 Zrotation Xrotation Yrotation
                      JOINT RightHandThumb2
                      {
                        OFFSET 8.25493 -7.75145e-005 0
                        CHANNELS 3 Zrotation Xrotation Yrotation
                        JOINT RightHandThumb3
                        {
                          OFFSET 7.24797 -0.000174408 0.000155029
                          CHANNELS 3 Zrotation Xrotation Yrotation
                          JOINT RightHandThumb4
                          {
                            OFFSET 7.00062 0 0
                            CHANNELS 3 Zrotation Xrotation Yrotation
                            End Site
                            {
                              OFFSET 0 0 0
                            }
                          }
                        }
                      }
                    }
                    JOINT RightHandIndex1
                    {
                      OFFSET 24.0991 1.01525 -5.40578
                      CHANNELS 3 Zrotation Xrotation Yrotation
                      JOINT RightHandIndex2
                      {
                        OFFSET 7.26773 7.75144e-005 0.000232543
                        CHANNELS 3 Zrotation Xrotation Yrotation
                        JOINT RightHandIndex3
                        {
                          OFFSET 7.13572 -0.000310058 3.87571e-005
                          CHANNELS 3 Zrotation Xrotation Yrotation
                          JOINT RightHandIndex4
                          {
                            OFFSET 5.46717 0 3.87572e-005
                            CHANNELS 3 Zrotation Xrotation Yrotation
                            End Site
                            {
                              OFFSET 0 0 0
                            }
                          }
                        }
                      }
                    }
                    JOINT RightHandMiddle1
                    {
                      OFFSET 24.4603 2.52899 0.918547
                      CHANNELS 3 Zrotation Xrotation Yrotation
                      JOINT RightHandMiddle2
                      {
                        OFFSET 7.41641 -0.000116272 -0.000116272
                        CHANNELS 3 Zrotation Xrotation Yrotation
                        JOINT RightHandMiddle3
                        {
                          OFFSET 8.76765 -3.87577e-005 0.000232543
                          CHANNELS 3 Zrotation Xrotation Yrotation
                          JOINT RightHandMiddle4
                          {
                            OFFSET 6.07609 -0.000193787 -0.000116271
                            CHANNELS 3 Zrotation Xrotation Yrotation
                            End Site
                            {
                              OFFSET 0 0 0
                            }
                          }
                        }
                      }
                    }
                    JOINT RightHandRing1
                    {
                      OFFSET 22.465 1.97571 6.34696
                      CHANNELS 3 Zrotation Xrotation Yrotation
                      JOINT RightHandRing2
                      {
                        OFFSET 7.36684 0.000193786 0.000155029
                        CHANNELS 3 Zrotation Xrotation Yrotation
                        JOINT RightHandRing3
                        {
                          OFFSET 8.07614 -0.000271301 0
                          CHANNELS 3 Zrotation Xrotation Yrotation
                          JOINT RightHandRing4
                          {
                            OFFSET 6.04468 0.000232543 0
                            CHANNELS 3 Zrotation Xrotation Yrotation
                            End Site
                            {
                              OFFSET 0 0 0
                            }
                          }
                        }
                      }
                    }
                    JOINT RightHandPinky1
                    {
                      OFFSET 19.5277 -0.352346 10.4296
                      CHANNELS 3 Zrotation Xrotation Yrotation
                      JOINT RightHandPinky2
                      {
                        OFFSET 6.16508 0 0.000232543
                        CHANNELS 3 Zrotation Xrotation Yrotation
                        JOINT RightHandPinky3
                        {
                          OFFSET 6.14396 -0.000155048 -0.0048834
                          CHANNELS 3 Zrotation Xrotation Yrotation
                          JOINT RightHandPinky4
                          {
                            OFFSET 4.98577 -7.75146e-005 -7.75143e-005
                            CHANNELS 3 Zrotation Xrotation Yrotation
                            End Site
                            {
                              OFFSET 0 0 0
                            }
                          }
                        }
                      }
                    }
                  }
                }
              }
            }
          }
        }
      }
    }
  }
}
MOTION
Frames:	4
Frame Time:	0.0333333
0 0 0 -90 -7.01671e-015 -180 -46.5706 -35.7358 -129.843 -177.61 -1.37244 -161.634 0.000381796 0.00193776 -7.19042 -4.19627 13.0289 29.5034 -0.47989 0.328016 33.7869 3.52682e-005 9.81462e-006 -86.4974 -153.036 -7.69081 -116.368 0.00899426 0.0165973 -14.922 2.37127 -2.12211 28.1005 0.454501 0.227611 51.36 0.00011316 -3.62664e-005 -86.4974 -1.0183 1.74536 126.959 30.7174 21.0823 -18.9391 7.1353 11.1544 -17.5829 -1.31398 17.097 -8.62832 -1.67662 30.7357 8.67811 -0.902415 13.2379 43.2333 75.6828 18.4736 -33.8163 30.321 -14.5161 21.5146 15.49 -1.94779 123.761 -30.811 -81.7082 -29.6899 -156.112 -1.21927 166.011 -20.7578 5.09226 1.92687 0.000257609 2.02842e-006 16.6314 0.000198074 -0.00149475 -0.000155384 98.0966 74.8336 -69.541 -0.000360828 -0.000584235 16.8358 0.00174467 -0.000354225 51.9341 -0.000516975 -0.000525898 -0.210736 31.4255 89.9994 16.7101 0.000178065 -0.000373683 34.9797 0.00121342 -0.000614131 31.6323 0.0016977 -0.000313921 -0.208416 -54.9767 87.2307 106.904 0.000453132 -0.000789155 38.771 0.00182918 -0.000165727 35.4237 -0.000629536 -0.000698103 -0.20665 -54.995 84.2122 106.975 0.00149833 -0.00102849 38.824 0.00223079 0.00118651 35.4796 -0.00728414 0.00201375 -0.0626917 -76.4134 -24.5226 -1.72477 -28.6484 -32.51 103.772 -0.339438 -16.0203 86.9932 -28.2532 56.2585 23.415 150.267 12.5767 152.426 -9.06765e-005 7.94005e-005 9.60548 0.000132794 0.000126407 2.85303 0.000581109 0.00635855 -171.818 95.7975 -87.8368 97.0422 -0.00019658 -0.00020889 1.3895 0.000163609 7.76753e-005 3.81534 -4.57764e-005 -4.57763e-005 -180 -0.755207 -89.9997 28.0337 -5.22349e-006 -6.52471e-006 19.6314 -2.29375e-005 0.000384203 6.53334 4.57764e-005 -3.63239e-013 -180 -96.6734 -87.7591 -61.119 1.2318e-005 0.000121741 26.0622 -0.000118948 0.00031164 12.9642 7.62941e-005 -4.57763e-005 -180 -73.8528 -81.8727 -31.0533 -7.8003e-005 0.000490311 17.4559 -4.55023e-005 7.78e-005 12.9642 0.000183106 -0.000335693 -180 
0 0 0 -90 -7.01671e-015 -180 -43.1357 -30.2465 -122.475 -177.655 -1.00868 -159.353 -0.0016715 -0.0124292 -8.21123 -5.2949 12.4927 29.06 -0.491707 0.309956 35.9122 4.31554e-005 -7.89748e-006 -86.4974 -152.473 -6.63461 -113.975 0.00990766 0.0199664 -15.3722 3.41305 -1.43217 27.9806 0.458625 0.219171 50.3037 0.000110036 -4.3559e-005 -86.4974 -0.948788 1.78408 124.702 30.5307 20.3052 -19.346 7.50008 10.9203 -17.5889 -0.964864 16.242 -9.36902 -2.13942 30.2541 9.25458 -0.722803 13.0556 44.4527 76.0238 18.6638 -33.0591 30.6267 -15.1032 23.2008 15.6615 -2.41051 124.798 -35.0577 -82.5655 -35.9275 -156.112 -1.21923 166.011 -20.7578 5.09225 1.92687 0.000258814 -5.65804e-007 16.6314 0.000199782 -0.00134555 -0.000153677 98.0972 74.8336 -69.5416 -0.000363892 -0.000380445 16.8357 0.0017449 -0.000351707 51.9342 -0.000516123 -0.000525043 -0.210905 29.9976 89.9993 18.138 0.00017292 -0.000377397 34.9797 0.00121334 -0.000668461 31.6323 0.00170965 -0.000317349 -0.208574 -54.9767 87.2307 106.904 0.000451338 -0.000793206 38.7711 0.00182944 -0.000197589 35.4237 -0.000628677 -0.000697242 -0.206802 -54.9948 84.2122 106.975 0.00149774 -0.00103175 38.824 0.00208707 0.00118105 35.4796 -0.00723718 0.00200608 -0.0631767 -72.6359 -24.0489 -5.22686 -28.9682 -27.8158 102.86 1.12083 -9.18896 87.0296 -36.3108 49.925 25.8488 150.27 12.5861 152.425 -8.15784e-005 1.62059e-005 9.60441 0.000136276 0.000111263 2.85303 0.00114249 0.0130754 -171.692 95.7975 -87.8368 97.0422 -0.000196727 -0.000215255 1.3895 0.000163121 7.30352e-005 3.81534 -4.57764e-005 -4.57763e-005 180 -10.711 -89.9987 18.0789 -3.11597e-005 5.25434e-005 19.6314 -1.06055e-005 0.000198959 6.53334 4.57764e-005 -1.52588e-005 -180 -96.6726 -87.759 -61.1182 4.33493e-005 2.5638e-005 26.0622 -0.000114832 0.000340075 12.9642 7.6294e-005 -6.1035e-005 -180 -73.8524 -81.8726 -31.0529 -5.79616e-005 0.000316606 17.456 -4.37301e-005 0.000117858 12.9672 0.000183106 -0.000411987 -180 
0 0 0 -90 -7.01671e-015 -180 -41.1506 -24.429 -116.615 -178.134 -0.805659 -157.816 -0.0002272 -0.00149104 -9.23607 -5.04944 11.7434 28.6665 -0.488951 0.314269 35.4045 5.79349e-005 -4.27355e-005 -86.4974 -152.222 -5.73691 -112.181 0.00137546 -0.0106267 -15.526 3.59628 -1.92679 28.2039 0.457736 0.221041 50.54 0.000108182 -6.25664e-005 -86.4974 -0.892898 1.81269 122.921 30.352 19.7255 -19.5662 7.99005 10.6656 -17.4697 -0.629516 15.4225 -10.0584 -2.76846 30.0636 10.4877 -0.366082 12.9673 45.5428 76.3599 18.861 -32.2946 30.9132 -15.4359 25.1107 15.9031 -2.55488 124.791 -37.2526 -83.5662 -39.7344 -156.112 -1.21918 166.01 -20.7578 5.09222 1.92686 0.000259996 -7.28127e-006 16.6314 0.000199782 -0.00134555 -0.000153677 98.0971 74.8336 -69.5416 -0.000362979 -0.000396503 16.8357 0.00174483 -0.000359754 51.9341 -0.000516971 -0.000525035 -0.211074 26.8486 89.9993 21.2869 0.000177438 -0.000371809 34.9797 0.00121295 -0.00077635 31.6323 0.00172333 -0.000313953 -0.208732 -54.9765 87.2307 106.903 0.000451886 -0.000799846 38.7711 0.00182916 -0.000260546 35.4237 -0.000628678 -0.000698937 -0.206955 -54.9944 84.2122 106.974 0.00149689 -0.0010394 38.824 0.0020871 0.00108659 35.4796 -0.00718851 0.00200011 -0.0636633 -69.5119 -23.6091 -7.72011 -29.8097 -21.8941 101.315 4.53552 -3.82339 84.2623 -28.1289 52.5568 18.5536 150.274 12.5955 152.424 -8.6193e-005 8.01725e-005 9.60332 0.000133912 0.000123493 2.85303 0.00164842 0.0197578 -171.567 95.7977 -87.8368 97.0424 -0.000197122 -0.000232929 1.3895 0.000161947 6.82373e-005 3.81534 -4.57764e-005 -4.57763e-005 180 -12.4708 -89.9977 16.3201 -3.09195e-005 -2.22153e-005 19.6314 -7.17412e-006 0.000157869 6.53335 4.57764e-005 -6.1035e-005 180 -96.6721 -87.759 -61.1177 3.67581e-005 -8.45638e-005 26.0622 -0.000107572 0.000335627 12.9642 7.6294e-005 -6.10351e-005 -180 -73.8525 -81.8725 -31.053 -4.37447e-005 0.000241017 17.456 -4.00298e-005 0.000128327 12.9702 0.000244141 -0.000305175 -180 
0 0 0 -90 -7.01671e-015 -180 -39.944 -18.7236 -112.27 -179.002 -0.710061 -157.459 0.00213592 0.0123533 -10.3584 -3.00152 11.3087 28.8429 -0.485558 0.31953 34.7894 8.28635e-005 -0.000114869 -86.4974 -152.31 -5.3746 -111.581 0.00607763 0.00642939 -15.2685 3.17351 -2.02976 28.3355 0.458864 0.218704 50.2457 0.000106721 -9.9864e-005 -86.4974 -0.8688 1.82435 122.162 30.187 19.5105 -19.6768 8.60429 10.4615 -17.3519 -0.276726 14.7535 -10.7249 -3.57864 30.2386 11.9426 0.0251154 12.7579 46.6053 76.6904 19.0649 -31.524 31.1149 -15.7312 27.1428 16.1708 -2.50438 124.17 -37.9095 -84.9243 -41.671 -156.112 -1.2193 166.011 -20.7578 5.09215 1.92684 0.000261057 -2.07388e-005 16.6314 0.000199782 -0.00134797 -0.000153677 98.0971 74.8336 -69.5416 -0.000362177 -0.000426046 16.8357 0.00174491 -0.000367854 51.9342 -0.000516966 -0.000522469 -0.211243 34.238 89.9994 13.8976 0.000177048 -0.000372828 34.9797 0.00121308 -0.000560573 31.6323 0.00173613 -0.000313974 -0.208893 -54.9763 87.2307 106.903 0.000451565 -0.000815373 38.7711 0.00182903 -0.000146191 35.4237 -0.000632952 -0.000700629 -0.207107 -54.9935 84.2121 106.973 0.00149629 -0.00105569 38.824 0.00194648 0.00107919 35.4797 -0.00714496 0.00199158 -0.06415 -68.6127 -23.4696 -8.51967 -30.2783 -16.7876 102.028 8.0649 3.07299 80.2892 -25.8406 62.794 20.0912 150.277 12.6048 152.423 -9.19587e-005 8.56793e-005 9.60224 0.00013226 0.000115932 2.85303 0.00130406 0.0148826 -171.571 95.7983 -87.8368 97.043 -0.000197333 -0.000281176 1.3895 0.000161282 6.13003e-005 3.81534 -4.57764e-005 -6.10351e-005 180 -12.9285 -89.9967 15.8634 -3.54412e-005 -9.74279e-005 19.6314 -5.96339e-006 0.000134926 6.53335 4.57764e-005 -0.000137329 -180 -96.672 -87.759 -61.1176 4.9616e-005 -0.000150906 26.0622 -0.000104063 0.000305459 12.9642 7.6294e-005 -7.62939e-005 180 -73.8527 -81.8725 -31.0532 -6.58524e-005 0.000185327 17.456 -3.48543e-005 0.000122052 12.9732 0.000244141 -0.000320434 -180 
